<svg width="521" height="521" viewBox="0 0 521 521" fill="none" xmlns="http://www.w3.org/2000/svg">
<path d="M250.326 181.891V123.415H270.222V181.891H250.326ZM250.326 397.585V337.009H270.222V397.585H250.326ZM259.401 355.217C246.602 355.217 235.083 353.816 224.844 351.015C214.605 348.213 205.879 344.362 198.665 339.46C191.451 334.324 185.866 328.255 181.91 321.252C178.187 314.249 176.325 306.312 176.325 297.441C176.325 296.507 176.325 295.574 176.325 294.64C176.325 293.706 176.442 293.006 176.674 292.539H223.448C223.448 293.006 223.448 293.473 223.448 293.94C223.448 294.407 223.448 294.873 223.448 295.34C223.681 301.176 225.543 305.962 229.033 309.697C232.524 313.198 237.061 315.766 242.646 317.4C248.464 319.034 254.514 319.851 260.797 319.851C266.382 319.851 271.735 319.384 276.854 318.45C282.206 317.283 286.628 315.299 290.118 312.498C293.842 309.697 295.703 306.078 295.703 301.643C295.703 296.041 293.376 291.722 288.722 288.687C284.301 285.653 278.367 283.202 270.92 281.334C263.706 279.467 255.794 277.366 247.184 275.031C239.272 273.164 231.36 271.063 223.448 268.729C215.536 266.161 208.322 262.893 201.807 258.924C195.523 254.956 190.404 249.82 186.448 243.518C182.492 236.981 180.514 228.811 180.514 219.007C180.514 209.436 182.608 201.149 186.797 194.146C190.986 186.91 196.687 180.957 203.901 176.288C211.347 171.619 219.958 168.235 229.731 166.134C239.738 163.799 250.442 162.632 261.845 162.632C272.549 162.632 282.555 163.799 291.864 166.134C301.172 168.235 309.317 171.503 316.298 175.938C323.279 180.14 328.748 185.509 332.704 192.045C336.66 198.348 338.638 205.468 338.638 213.404C338.638 215.038 338.638 216.556 338.638 217.956C338.638 219.357 338.521 220.291 338.289 220.758H291.864V217.956C291.864 213.755 290.584 210.253 288.024 207.452C285.464 204.417 281.741 202.083 276.854 200.449C272.2 198.815 266.499 197.998 259.75 197.998C255.096 197.998 250.791 198.348 246.835 199.048C243.112 199.748 239.854 200.799 237.061 202.2C234.269 203.6 232.058 205.351 230.429 207.452C229.033 209.319 228.335 211.654 228.335 214.455C228.335 218.423 229.964 221.691 233.222 224.259C236.712 226.594 241.25 228.578 246.835 230.212C252.42 231.846 258.587 233.597 265.335 235.464C273.713 237.798 282.439 240.133 291.515 242.467C300.823 244.568 309.433 247.486 317.345 251.221C325.257 254.956 331.656 260.325 336.543 267.328C341.43 274.098 343.874 283.318 343.874 294.99C343.874 306.195 341.663 315.649 337.241 323.353C333.053 331.056 327.119 337.242 319.439 341.911C311.76 346.579 302.801 349.964 292.562 352.065C282.323 354.166 271.269 355.217 259.401 355.217Z" fill="currentColor"/>
<path d="M501 126.889C501 67.8558 441.18 20 367.389 20M20 367.389C20 441.18 67.8558 501 126.889 501M126.889 20C67.8558 20 20 67.8558 20 126.889M367.389 501C441.18 501 501 441.18 501 367.389" stroke="currentColor" stroke-width="40" stroke-linecap="round"/>
</svg>
