<svg width="1097" height="310" viewBox="0 0 1097 310" fill="none" xmlns="http://www.w3.org/2000/svg">
<path d="M474.124 250.037C463.913 250.037 454.722 248.932 446.553 246.721C438.384 244.511 431.421 241.471 425.666 237.602C419.91 233.549 415.454 228.759 412.298 223.233C409.327 217.706 407.842 211.442 407.842 204.442C407.842 203.705 407.842 202.968 407.842 202.231C407.842 201.494 407.935 200.941 408.12 200.573H445.439C445.439 200.941 445.439 201.31 445.439 201.678C445.439 202.047 445.439 202.415 445.439 202.783C445.625 207.389 447.11 211.166 449.895 214.113C452.68 216.877 456.301 218.903 460.757 220.193C465.398 221.482 470.226 222.127 475.238 222.127C479.694 222.127 483.965 221.759 488.049 221.022C492.32 220.101 495.847 218.535 498.632 216.324C501.603 214.113 503.088 211.258 503.088 207.758C503.088 203.336 501.232 199.928 497.518 197.533C493.991 195.138 489.256 193.204 483.315 191.73C477.559 190.256 471.247 188.598 464.377 186.756C458.064 185.282 451.752 183.624 445.439 181.782C439.126 179.755 433.371 177.176 428.172 174.044C423.159 170.912 419.075 166.86 415.918 161.885C412.762 156.727 411.184 150.279 411.184 142.542C411.184 134.989 412.855 128.448 416.197 122.922C419.539 117.211 424.088 112.513 429.843 108.828C435.785 105.144 442.654 102.473 450.452 100.815C458.436 98.9724 466.976 98.0513 476.074 98.0513C484.615 98.0513 492.598 98.9724 500.025 100.815C507.451 102.473 513.95 105.052 519.52 108.552C525.09 111.868 529.453 116.105 532.609 121.264C535.766 126.238 537.344 131.857 537.344 138.12C537.344 139.41 537.344 140.607 537.344 141.713C537.344 142.818 537.251 143.555 537.065 143.923H500.025V141.713C500.025 138.397 499.004 135.633 496.961 133.423C494.919 131.028 491.948 129.185 488.049 127.896C484.336 126.606 479.787 125.961 474.403 125.961C470.69 125.961 467.255 126.238 464.099 126.79C461.128 127.343 458.529 128.172 456.301 129.278C454.073 130.383 452.309 131.765 451.009 133.423C449.895 134.896 449.338 136.739 449.338 138.949C449.338 142.081 450.638 144.66 453.237 146.687C456.022 148.529 459.643 150.095 464.099 151.385C468.555 152.674 473.475 154.056 478.859 155.53C485.543 157.372 492.505 159.214 499.746 161.056C507.173 162.714 514.043 165.017 520.355 167.965C526.668 170.912 531.774 175.15 535.673 180.676C539.572 186.019 541.521 193.296 541.521 202.507C541.521 211.35 539.757 218.811 536.23 224.891C532.888 230.97 528.153 235.852 522.026 239.536C515.899 243.221 508.751 245.892 500.582 247.55C492.413 249.208 483.593 250.037 474.124 250.037Z" fill="white"/>
<path d="M633.889 250.037C618.293 250.037 605.204 247.366 594.621 242.024C584.038 236.497 575.961 228.114 570.391 216.877C565.007 205.455 562.315 191.177 562.315 174.044C562.315 156.543 565.007 142.265 570.391 131.212C575.961 119.974 584.038 111.592 594.621 106.065C605.389 100.538 618.479 97.7749 633.889 97.7749C643.915 97.7749 652.92 98.9724 660.904 101.367C669.073 103.762 676.128 107.447 682.069 112.421C688.011 117.395 692.467 123.567 695.437 130.936C698.594 138.12 700.172 146.687 700.172 156.635H661.461C661.461 150.003 660.439 144.568 658.397 140.331C656.355 136.094 653.198 132.87 648.928 130.659C644.843 128.448 639.645 127.343 633.332 127.343C625.906 127.343 619.871 129.001 615.23 132.317C610.588 135.633 607.153 140.515 604.925 146.963C602.697 153.411 601.583 161.425 601.583 171.005V177.36C601.583 186.756 602.697 194.678 604.925 201.125C607.339 207.573 610.959 212.455 615.787 215.771C620.614 218.903 626.927 220.469 634.725 220.469C641.037 220.469 646.236 219.364 650.321 217.153C654.591 214.942 657.84 211.626 660.068 207.205C662.296 202.783 663.41 197.441 663.41 191.177H700.172C700.172 200.573 698.594 208.955 695.437 216.324C692.467 223.693 688.011 229.865 682.069 234.839C676.314 239.813 669.351 243.589 661.182 246.169C653.013 248.748 643.915 250.037 633.889 250.037Z" fill="white"/>
<path d="M767.914 250.037C763.087 250.037 757.889 249.485 752.319 248.379C746.934 247.274 741.828 245.34 737.001 242.576C732.174 239.629 728.182 235.484 725.026 230.141C722.055 224.614 720.57 217.614 720.57 209.139C720.57 199.007 722.798 190.625 727.254 183.992C731.71 177.36 738.022 172.202 746.192 168.518C754.547 164.649 764.48 161.978 775.991 160.504C787.502 159.03 800.22 158.293 814.145 158.293V147.516C814.145 143.279 813.403 139.594 811.917 136.462C810.618 133.33 808.204 130.843 804.676 129.001C801.334 127.159 796.6 126.238 790.473 126.238C784.346 126.238 779.333 126.975 775.434 128.448C771.721 129.922 769.028 131.857 767.358 134.252C765.872 136.462 765.129 138.949 765.129 141.713V145.029H727.532C727.347 144.108 727.254 143.279 727.254 142.542C727.254 141.621 727.254 140.515 727.254 139.226C727.254 130.751 729.853 123.474 735.052 117.395C740.25 111.131 747.584 106.341 757.053 103.025C766.522 99.7093 777.569 98.0513 790.194 98.0513C803.748 98.0513 815.074 99.8014 824.171 103.302C833.455 106.802 840.51 111.96 845.337 118.777C850.35 125.593 852.857 134.159 852.857 144.476V210.521C852.857 213.837 853.785 216.324 855.642 217.982C857.684 219.456 859.912 220.193 862.326 220.193H871.516V245.34C869.659 246.261 866.782 247.182 862.883 248.103C858.984 249.208 854.249 249.761 848.679 249.761C843.295 249.761 838.467 248.932 834.197 247.274C830.113 245.8 826.678 243.682 823.893 240.918C821.108 237.971 819.158 234.47 818.044 230.417H816.095C812.938 234.286 809.039 237.694 804.398 240.642C799.942 243.589 794.65 245.892 788.523 247.55C782.582 249.208 775.712 250.037 767.914 250.037ZM781.004 221.022C786.203 221.022 790.844 220.285 794.929 218.811C799.014 217.153 802.448 215.034 805.233 212.455C808.018 209.692 810.153 206.376 811.639 202.507C813.31 198.638 814.145 194.493 814.145 190.072V182.058C803.748 182.058 794.465 182.795 786.295 184.269C778.126 185.558 771.628 187.861 766.801 191.177C762.159 194.493 759.838 199.099 759.838 204.994C759.838 208.31 760.674 211.166 762.345 213.561C764.016 215.956 766.429 217.798 769.585 219.087C772.742 220.377 776.548 221.022 781.004 221.022Z" fill="white"/>
<path d="M890.754 246.721V101.367H922.782L925.845 121.264H927.794C931.136 116.474 935.128 112.329 939.77 108.828C944.597 105.328 949.982 102.657 955.923 100.815C961.864 98.9724 968.362 98.0513 975.418 98.0513C985.072 98.0513 993.52 99.8014 1000.76 103.302C1008 106.802 1013.57 112.329 1017.47 119.882C1021.56 127.435 1023.6 137.291 1023.6 149.45V246.721H984.887V155.53C984.887 150.924 984.33 147.055 983.216 143.923C982.102 140.607 980.431 137.936 978.203 135.91C976.16 133.699 973.561 132.133 970.405 131.212C967.248 130.291 963.721 129.83 959.822 129.83C954.066 129.83 948.868 131.212 944.226 133.975C939.584 136.739 935.964 140.515 933.364 145.305C930.765 150.095 929.465 155.622 929.465 161.885V246.721H890.754Z" fill="white"/>
<path d="M1058.29 80.0893V46.9287H1097V80.0893H1058.29ZM1058.29 246.721V101.367H1097V246.721H1058.29Z" fill="white"/>
<path d="M148.975 107.605V72.3496H160.98V107.605H148.975ZM148.975 237.65V201.127H160.98V237.65H148.975ZM154.451 212.105C146.729 212.105 139.778 211.261 133.6 209.572C127.422 207.883 122.157 205.561 117.804 202.605C113.451 199.509 110.081 195.85 107.694 191.627C105.448 187.405 104.324 182.62 104.324 177.272C104.324 176.709 104.324 176.146 104.324 175.583C104.324 175.02 104.394 174.598 104.535 174.316H132.758C132.758 174.598 132.758 174.879 132.758 175.161C132.758 175.442 132.758 175.724 132.758 176.005C132.898 179.524 134.021 182.409 136.127 184.661C138.234 186.772 140.972 188.32 144.342 189.305C147.852 190.29 151.503 190.783 155.294 190.783C158.664 190.783 161.893 190.501 164.982 189.938C168.212 189.235 170.879 188.038 172.986 186.35C175.232 184.661 176.355 182.479 176.355 179.805C176.355 176.427 174.951 173.824 172.143 171.994C169.475 170.164 165.895 168.687 161.402 167.561C157.049 166.435 152.275 165.168 147.08 163.761C142.306 162.635 137.532 161.368 132.758 159.961C127.984 158.413 123.631 156.442 119.699 154.05C115.908 151.657 112.819 148.561 110.432 144.761C108.045 140.82 106.852 135.894 106.852 129.983C106.852 124.213 108.115 119.216 110.643 114.994C113.17 110.631 116.61 107.042 120.963 104.227C125.456 101.413 130.651 99.3718 136.549 98.1052C142.586 96.6978 149.045 95.994 155.926 95.994C162.384 95.994 168.422 96.6978 174.039 98.1052C179.655 99.3718 184.57 101.342 188.782 104.016C192.994 106.55 196.294 109.787 198.681 113.727C201.068 117.527 202.261 121.82 202.261 126.605C202.261 127.59 202.261 128.505 202.261 129.35C202.261 130.194 202.191 130.757 202.051 131.038H174.039V129.35C174.039 126.816 173.266 124.705 171.722 123.016C170.177 121.187 167.931 119.779 164.982 118.794C162.174 117.809 158.734 117.316 154.662 117.316C151.854 117.316 149.256 117.527 146.869 117.95C144.622 118.372 142.657 119.005 140.972 119.85C139.287 120.694 137.953 121.75 136.97 123.016C136.127 124.142 135.706 125.55 135.706 127.238C135.706 129.631 136.689 131.601 138.655 133.15C140.761 134.557 143.499 135.753 146.869 136.738C150.239 137.724 153.96 138.779 158.032 139.905C163.087 141.313 168.352 142.72 173.828 144.127C179.444 145.394 184.64 147.153 189.414 149.405C194.188 151.657 198.049 154.894 200.998 159.116C203.946 163.198 205.421 168.757 205.421 175.794C205.421 182.55 204.087 188.25 201.419 192.894C198.892 197.538 195.311 201.268 190.677 204.083C186.044 206.898 180.638 208.938 174.46 210.205C168.282 211.472 161.612 212.105 154.451 212.105Z" fill="white"/>
<path d="M300.229 74.4444C300.229 38.8527 264.134 10 219.61 10M10 219.444C10 263.934 38.8755 300 74.4953 300M74.4953 10C38.8755 10 10 38.8527 10 74.4444M219.61 300C264.134 300 300.229 263.934 300.229 219.444" stroke="white" stroke-width="20" stroke-linecap="round"/>
</svg>
